HIERARCHY
ROOT ui
{
	 OFFSET 0 0 0
	 CHANNELS 3 XPosition YPosition Z Position
	 EndSite
	 {
	 OFFSET 0 -1 0
	 }
}
ROOT li
{
	 OFFSET 0 0 0
	 CHANNELS 3 XPosition YPosition Z Position
	 EndSite
	 {
	 OFFSET 0 -1 0
	 }
}
ROOT ul
{
	 OFFSET 0 0 0
	 CHANNELS 3 XPosition YPosition Z Position
	 EndSite
	 {
	 OFFSET 0 -1 0
	 }
}
ROOT ll
{
	 OFFSET 0 0 0
	 CHANNELS 3 XPosition YPosition Z Position
	 EndSite
	 {
	 OFFSET 0 -1 0
	 }
}
ROOT tt
{
	 OFFSET 0 0 0
	 CHANNELS 3 XPosition YPosition Z Position
	 EndSite
	 {
	 OFFSET 0 -1 0
	 }
}
ROOT tb
{
	 OFFSET 0 0 0
	 CHANNELS 3 XPosition YPosition Z Position
	 EndSite
	 {
	 OFFSET 0 -1 0
	 }
}
ROOT td
{
	 OFFSET 0 0 0
	 CHANNELS 3 XPosition YPosition Z Position
	 EndSite
	 {
	 OFFSET 0 -1 0
	 }
}
ROOT v
{
	 OFFSET 0 0 0
	 CHANNELS 3 XPosition YPosition Z Position
	 EndSite
	 {
	 OFFSET 0 -1 0
	 }
}
ROOT bn
{
	 OFFSET 0 0 0
	 CHANNELS 3 XPosition YPosition Z Position
	 EndSite
	 {
	 OFFSET 0 -1 0
	 }
}
MOTION
Frames: 21
Frame Time: 0.002
-0.0059831089973449705	0.0010486459732055664	0		0.47968545532226564	-2.377194091796875	0		-1.0681068115234376	-0.00886375331878662	0		-0.6845189208984375	-2.27922900390625	0		0.85578173828125	-0.7313517456054688	0		2.205843017578125	0.08812654876708985	0		3.789398193359375	0.7306005249023437	0		5.86647265625	0.9388141479492188	0		-0.38672412109375	5.876521484375	0		
0.06253849411010742	0.01152854347229004	0		0.5061011657714843	-2.377356689453125	0		-1.0706768798828126	-0.008769628524780273	0		-0.7220575561523438	-2.273837646484375	0		0.86129296875	-0.7213372192382812	0		2.1880771484375	0.0653316879272461	0		3.790883544921875	0.736633056640625	0		5.8618369140625	0.952808837890625	0		-0.355211181640625	5.8823203125	0		
-0.01807070732116699	0.013315816879272462	0		0.5014478759765625	-2.3792236328125	0		-1.073297607421875	-0.008643267631530761	0		-0.6557813110351562	-2.28430419921875	0		0.8505821533203125	-0.7311546020507812	0		2.23846337890625	0.06598262023925781	0		3.76816552734375	0.7248995361328125	0		5.85987744140625	0.9270001831054687	0		-0.43998757934570315	5.8601455078125	0		
0.06813443756103515	-0.005293269157409668	0		0.4947491149902344	-2.38403955078125	0		-1.0880289306640625	-0.019378097534179687	0		-0.6994522094726563	-2.2857939453125	0		0.8479390869140625	-0.7310078735351563	0		2.171700439453125	0.05166785430908203	0		3.753534423828125	0.725126220703125	0		5.842970703125	0.913657958984375	0		-0.40852001953125	5.8670107421875	0		
-0.026359209060668944	0.010683865547180175	0		0.4900836486816406	-2.385838623046875	0		-1.0166661376953126	-0.020814674377441406	0		-0.6671438598632813	-2.290899169921875	0		0.84228076171875	-0.7338015747070312	0		2.19204833984375	0.04863836288452148	0		3.75486376953125	0.7192449951171875	0		5.841099609375	0.913888427734375	0		-0.4101074523925781	5.8651943359375	0		
0.05492588806152344	-0.003814141035079956	0		0.5251718139648438	-2.419946044921875	0		-1.09324658203125	-0.018943866729736327	0		-0.732784423828125	-2.293126708984375	0		0.8427067260742187	-0.730613525390625	0		2.17234619140625	0.03598387908935547	0		3.723272705078125	0.71867578125	0		5.84215576171875	0.9279423217773437	0		-0.39655682373046874	5.87428466796875	0		
-0.00955106258392334	0.003976093053817749	0		0.527661376953125	-2.41273876953125	0		-1.0836920166015624	-0.007776194095611573	0		-0.6603818969726563	-2.296505615234375	0		0.8421836547851562	-0.72738427734375	0		2.195901123046875	0.046989166259765625	0		3.736690185546875	0.7127479248046875	0		5.84034716796875	0.92825830078125	0		-0.39902099609375	5.874546875	0		
0.043024539947509766	0.009791652679443359	0		0.5101615905761718	-2.4113271484375	0		-1.0982607421875	-0.018366670608520506	0		-0.6768541870117187	-2.29208544921875	0		0.8346473999023437	-0.7330631103515625	0		2.1392138671875	0.022714082717895507	0		3.71417529296875	0.7071566772460938	0		5.83278759765625	0.9027847290039063	0		-0.41649603271484376	5.86497265625	0		
-0.021485424041748045	-0.0023526370525360106	0		0.5416093139648438	-2.424308349609375	0		-1.0306983642578125	-0.02263355255126953	0		-0.6734035034179687	-2.304805908203125	0		0.832235595703125	-0.7327562255859374	0		2.182734619140625	0.013602972030639648	0		3.70263134765625	0.6894959106445312	0		5.82817626953125	0.8893981323242187	0		-0.4188023376464844	5.86529931640625	0		
-0.02380538558959961	-0.0020050830841064453	0		0.5112482299804687	-2.423728271484375	0		-1.1080072021484375	-0.0206191349029541	0		-0.6777808227539063	-2.306429443359375	0		0.826868408203125	-0.7363974609375	0		2.151277587890625	-0.0018361979722976685	0		3.68826318359375	0.6828827514648438	0		5.8243291015625	0.8742991333007812	0		-0.42102011108398435	5.86565380859375	0		
0.029011484146118163	0.003888406991958618	0		0.5189002685546875	-2.43145361328125	0		-1.0292957763671875	-0.026930604934692383	0		-0.6800568237304687	-2.30604638671875	0		0.8276561889648437	-0.7320685424804687	0		2.21012890625	0.00796461820602417	0		3.690033935546875	0.6821499633789062	0		5.8199365234375	0.8886527099609375	0		-0.408057861328125	5.8759013671875	0		
-0.02515065574645996	0.0017301280498504639	0		0.5177321166992187	-2.42908251953125	0		-1.107353271484375	-0.01686000633239746	0		-0.6822398681640625	-2.305643310546875	0		0.8255038452148438	-0.7316947021484375	0		2.15185400390625	-0.007200910091400147	0		3.674857666015625	0.676581298828125	0		5.82341455078125	0.89075634765625	0		-0.3760391845703125	5.88100341796875	0		
0.04677667617797852	-0.0025087049007415773	0		0.56455908203125	-2.4391142578125	0		-1.0394261474609374	-0.021042158126831054	0		-0.68936474609375	-2.31018017578125	0		0.8234540405273437	-0.7313058471679688	0		2.216763916015625	-0.01342254638671875	0		3.66872314453125	0.6639480590820312	0		5.82196630859375	0.8912554321289062	0		-0.41101541137695313	5.87470458984375	0		
-0.03709313201904297	0.004623153209686279	0		0.5086114807128906	-2.435237548828125	0		-1.120375	-0.02291363525390625	0		-0.6933553466796875	-2.311731689453125	0		0.8384430541992187	-0.7390545043945312	0		2.150709716796875	-0.027492156982421877	0		3.661697998046875	0.651332763671875	0		5.81479736328125	0.86593994140625	0		-0.4278969116210937	5.86626123046875	0		
0.03597978973388672	-0.008609004020690918	0		0.5307044067382812	-2.44003515625	0		-1.0512237548828125	-0.027088014602661133	0		-0.69925	-2.31525830078125	0		0.81362646484375	-0.7374475708007813	0		2.159810791015625	-0.03721055221557617	0		3.651849365234375	0.6457484130859374	0		5.8050009765625	0.8804801025390625	0		-0.41450408935546873	5.87556201171875	0		
-0.0356386604309082	4.304560124874115E-4	0		0.5139253540039063	-2.44348876953125	0		-1.116921875	-0.02707712745666504	0		-0.6989743041992188	-2.312834716796875	0		0.8149453735351563	-0.7340658569335937	0		2.16395166015625	-0.05588373184204101	0		3.65000537109375	0.6270952758789062	0		5.810818359375	0.8497078857421875	0		-0.43403985595703126	5.87915478515625	0		
0.042808067321777346	0.0021518449783325196	0		0.5443458862304688	-2.438357177734375	0		-1.0364405517578126	-0.02134940719604492	0		-0.6965585327148438	-2.3084296875	0		0.819422607421875	-0.7267122192382812	0		2.1915224609375	-0.03976298522949219	0		3.652504150390625	0.6334033813476563	0		5.80328515625	0.8503568725585937	0		-0.41552142333984377	5.87441357421875	0		
-0.03864702987670898	0.0012772239446640014	0		0.5087899475097656	-2.44464892578125	0		-1.0518988037109376	-0.02278216552734375	0		-0.7041038208007813	-2.3139404296875	0		0.8119041137695312	-0.7332571411132812	0		2.15880859375	-0.0701172332763672	0		3.646919189453125	0.6157774658203125	0		5.80226708984375	0.8525890502929687	0		-0.45285491943359374	5.8721611328125	0		
0.03703095245361328	9.069000370800495E-6	0		0.5583522338867187	-2.452698974609375	0		-1.0553155517578126	-0.034328273773193356	0		-0.7095099487304688	-2.31847705078125	0		0.8105775146484375	-0.7328631591796875	0		2.192486572265625	-0.07106305694580078	0		3.636561279296875	0.6091878051757813	0		5.79552978515625	0.825521728515625	0		-0.38494775390625	5.88197265625	0		
-0.048195533752441407	-0.0048462748527526855	0		0.5291317749023438	-2.451062744140625	0		-1.056492919921875	-0.03390487289428711	0		-0.6747565307617187	-2.32038037109375	0		0.8063583374023438	-0.7354540405273438	0		2.193210693359375	-0.08172823333740234	0		3.631344970703125	0.6035439453125	0		5.79469384765625	0.8259953002929687	0		-0.4200471496582031	5.87668310546875	0		
0.031779966354370116	-0.0031806540489196775	0		0.53005859375	-2.44870703125	0		-1.1284853515625	-0.027866722106933594	0		-0.690968505859375	-2.333847412109375	0		0.8113657836914062	-0.728139892578125	0		2.1822861328125	-0.06830150604248048	0		3.630265380859375	0.5978521118164063	0		5.7876455078125	0.8559970703125	0		-0.40686444091796875	5.88795166015625	0		
